<?xml version="1.0" encoding="utf-8"?>
<!-- Generator: Adobe Illustrator 19.0.0, SVG Export Plug-In . SVG Version: 6.00 Build 0)  -->
<svg version="1.1" id="Layer_1" xmlns="http://www.w3.org/2000/svg" xmlns:xlink="http://www.w3.org/1999/xlink" x="0px" y="0px"
	 viewBox="0 0 461.4 155" style="enable-background:new 0 0 461.4 155;" xml:space="preserve">
<style type="text/css">
	.st0{fill:#158DBC;}
</style>
<g id="XMLID_1_">
	<g id="XMLID_2_">
		<path id="XMLID_9_" class="st0" d="M45.6,117.9c1.4,1.7,2,3.7,2,5.9c0,2.6-0.7,4.8-2.2,6.6c-1.5,1.8-3.5,3.2-6,4.1
			c-2.5,0.9-5.4,1.4-8.4,1.4c-5,0-8.9-1-11.7-2.9c-2.8-2-4.2-4.8-4.2-8.5c0-2.5,0.8-4.6,2.5-6.4c1.7-1.8,3.9-3,6.8-3.7
			c-2.1-0.8-3.7-2-4.9-3.6c-1.2-1.6-1.8-3.4-1.8-5.4c0-2.4,0.7-4.5,2.2-6.2c1.4-1.7,3.4-3,5.8-3.9c2.4-0.9,5.1-1.3,8.1-1.3
			c2.8,0,5.2,0.4,7.4,1.3c2.2,0.8,3.9,2,5.1,3.6c1.2,1.6,1.8,3.4,1.8,5.5c0,2.4-0.7,4.5-2.2,6.3c-1.5,1.8-3.4,3.1-5.9,3.8
			C42.4,114.9,44.2,116.1,45.6,117.9z M35.9,126.5c1.2-0.9,1.8-2.1,1.8-3.8c0-1.2-0.5-2.2-1.6-3c-1.1-0.8-2.5-1.4-4.2-1.7
			c-4.4,0.8-6.6,2.7-6.6,5.4c0,1.5,0.5,2.6,1.6,3.3c1.1,0.7,2.6,1.1,4.6,1.1C33.2,127.8,34.7,127.3,35.9,126.5z M36.5,109.5
			c0.9-0.8,1.3-2.1,1.3-3.6c0-1.3-0.4-2.2-1.3-2.9c-0.9-0.7-2.1-1-3.6-1c-1.5,0-2.7,0.4-3.7,1.2c-1,0.8-1.5,1.9-1.5,3.5
			c0,2.4,1.6,4,4.7,4.8C34.2,110.9,35.6,110.3,36.5,109.5z"/>
		<path id="XMLID_13_" class="st0" d="M54.7,131.2c-2.6-3.2-3.8-7.7-3.8-13.7c0-4.9,0.7-9.2,2-12.7c1.3-3.5,3.2-6.2,5.7-8.1
			c2.5-1.9,5.5-2.8,9-2.8c4.8,0,8.6,1.6,11.1,4.7c2.6,3.2,3.8,7.7,3.8,13.7c0,4.9-0.7,9.2-2,12.7s-3.2,6.2-5.7,8.1
			c-2.5,1.9-5.5,2.8-9,2.8C60.9,135.9,57.2,134.3,54.7,131.2z M70.5,123.5c1-2.8,1.6-7,1.6-12.6c0-3.1-0.4-5.3-1.1-6.8
			c-0.8-1.4-1.9-2.1-3.6-2.1c-2,0-3.5,1.5-4.5,4.4c-1,2.9-1.6,7.1-1.6,12.5c0,3.1,0.4,5.3,1.1,6.8c0.8,1.4,1.9,2.1,3.6,2.1
			C68,127.8,69.5,126.3,70.5,123.5z"/>
		<path id="XMLID_22_" class="st0" d="M110.6,110c1.9,1,3.4,2.5,4.5,4.4c1.1,1.9,1.6,4,1.6,6.4c0,4.8-1.5,8.5-4.4,11.1
			c-2.9,2.7-7,4-12.2,4c-3,0-5.7-0.4-8.3-1.2c-2.6-0.8-4.9-1.8-6.8-3.2l4-7.7c3.3,2.5,6.9,3.7,11,3.7c2.1,0,3.7-0.5,4.8-1.4
			c1.1-1,1.7-2.3,1.7-4.1c0-1.7-0.5-3-1.6-3.9c-1.1-0.9-2.6-1.4-4.6-1.4c-1.2,0-2.4,0.2-3.6,0.5c-1.2,0.3-2.3,0.8-3.2,1.4h-5.9
			l1.9-24.4h27.1l-0.6,8.2H99.5l-0.6,6.8c1.6-0.6,3.3-0.9,5.2-0.9C106.5,108.5,108.7,109,110.6,110z"/>
		<path id="XMLID_24_" class="st0" d="M147.4,133.6c-3-1.6-5.3-3.9-7-6.9c-1.6-3-2.4-6.5-2.4-10.5c0-4.5,0.9-8.4,2.7-11.8
			c1.8-3.4,4.4-6,7.7-7.8c3.3-1.8,7.2-2.7,11.6-2.7c2.7,0,5.3,0.4,7.7,1.2c2.4,0.8,4.6,1.9,6.5,3.3l-3.9,7.7
			c-1.7-1.3-3.3-2.2-4.8-2.8c-1.6-0.6-3.2-0.9-4.9-0.9c-3.7,0-6.6,1.2-8.6,3.7c-2,2.4-3.1,5.8-3.1,10.1c0,3.7,0.8,6.4,2.4,8.4
			c1.6,1.9,3.9,2.9,7,2.9c1.6,0,3.3-0.3,5-0.9c1.7-0.6,3.6-1.5,5.6-2.7l2.7,7.7c-1.4,1.3-3.3,2.4-5.8,3.3s-5.1,1.2-7.7,1.2
			C154,136,150.4,135.2,147.4,133.6z"/>
		<path id="XMLID_26_" class="st0" d="M208.2,135.4l-3-8.5h-18.3l-4.3,8.5h-11L194,94.3h8.7l15.9,41.1H208.2z M191,118.8h11.3
			l-4.7-13.1L191,118.8z"/>
		<path id="XMLID_29_" class="st0" d="M251.1,120.2c0.7,0.8,1.3,2,1.7,3.4l4,11.8h-11.4l-4.3-13.7c-0.5-1.5-1.8-2.3-4-2.3h-4.1
			l-1.2,16H221l3.2-41.1h20.1c4.3,0,7.7,1.1,10.1,3.2c2.4,2.2,3.6,5,3.6,8.6c0,6.7-3.2,10.8-9.6,12.3
			C249.5,118.8,250.4,119.4,251.1,120.2z M242.2,111.4c1.9,0,3.3-0.4,4.3-1.2c1-0.8,1.4-1.9,1.4-3.4c0-1.4-0.4-2.5-1.2-3.2
			c-0.8-0.7-2.1-1-3.9-1h-8.6l-0.7,8.8H242.2z"/>
		<path id="XMLID_32_" class="st0" d="M315.5,94.3h10.3l-17.9,41.1h-8.6l-6.8-24.5l-10.6,24.5h-8.7l-11.4-41.1h10.9l6.5,25.8
			l11.1-25.8h7.5l6.6,26.4L315.5,94.3z"/>
		<path id="XMLID_37_" class="st0" d="M354.3,135.4l-3-8.5H333l-4.3,8.5h-11l22.4-41.1h8.7l15.9,41.1H354.3z M337.2,118.8h11.3
			l-4.7-13.1L337.2,118.8z"/>
		<path id="XMLID_41_" class="st0" d="M373.1,134.8c-3-0.8-5.6-1.9-7.8-3.3l4-7.7c4.1,2.6,8.6,3.9,13.5,3.9c4.5,0,6.8-1.1,6.8-3.3
			c0-1.2-0.6-2.1-1.9-2.8c-1.3-0.7-3.2-1.4-5.9-2.2c-2.8-0.8-5.1-1.6-7-2.5c-1.8-0.8-3.4-2-4.8-3.6c-1.3-1.6-2-3.7-2-6.3
			c0-2.6,0.7-4.9,2.2-6.9c1.5-2,3.5-3.5,6.2-4.6c2.7-1.1,5.8-1.6,9.4-1.6c3,0,5.9,0.4,8.6,1.2s4.9,1.9,6.5,3.3L397,106
			c-1.7-1.2-3.6-2.2-5.6-2.9c-2-0.7-4-1-5.9-1c-2.1,0-3.8,0.3-5,1c-1.2,0.7-1.8,1.6-1.8,2.8c0,1.2,0.6,2.2,1.9,2.8s3.2,1.4,6,2.1
			c2.8,0.8,5.2,1.6,7,2.4c1.8,0.8,3.4,2,4.7,3.6c1.3,1.6,2,3.6,2,6.1c0,4.1-1.6,7.3-4.7,9.6c-3.1,2.3-7.5,3.4-13.2,3.4
			C379.1,136,376.1,135.6,373.1,134.8z"/>
		<path id="XMLID_43_" class="st0" d="M435.8,94.3h10.6l-3.2,41.1h-10.7l1.3-16.6h-16.5l-1.3,16.6h-10.6l3.2-41.1h10.7l-1.3,16h16.5
			L435.8,94.3z"/>
	</g>
	<g id="XMLID_3_">
		<g id="XMLID_4_">
			<g id="XMLID_5_">
				<path id="XMLID_76_" class="st0" d="M108.4,82.6c4.7-5.6,20.8-20.2,61.2-25c0.6-0.1,0.8,0.8,0.2,1c-12,3.6-40.9,12.9-60.8,24.8
					C108.6,83.7,108,83.1,108.4,82.6z"/>
			</g>
			<g id="XMLID_6_">
				<path id="XMLID_75_" class="st0" d="M174.1,57.4c-0.6,0.1-0.9-0.7-0.4-1.1c5.4-3.9,22-15.7,28.6-19c29.6-14.6,103.6,5,112,10
					c8.4,5-86.9-18.8-138.8,10L174.1,57.4z"/>
			</g>
			<g id="XMLID_7_">
				<path id="XMLID_74_" class="st0" d="M318.1,49c7.4,1.6,20.8,4.1,29.4,3.9c1.3,0,2.4,0.8,2.8,2c0.7,2.4,1.9,6.1,2.9,6.6
					c1.4,0.7-15.3-4.2-35.3-11.8C317.4,49.6,317.6,48.9,318.1,49z"/>
			</g>
		</g>
		<g id="XMLID_38_">
			<path id="XMLID_73_" class="st0" d="M347.7,44.7c-0.5-1-1.5-1.8-2.7-1.8c0,0-0.1,0-0.1,0c0.2-0.6,0.3-1.3,0.1-2
				c-0.3-1-1.2-1.8-2.3-2c-1.9-0.3-3.5,1.1-3.5,2.9c0,0.1,0,0.1,0,0.2c-0.3,0.1-0.6,0.3-0.8,0.5c-0.5-0.5-1.2-0.8-2-0.8
				c-1.6,0-2.9,1.3-2.9,2.9c0,0.1,0,0.1,0,0.2c-5.5-1.2-11.5-2.5-15.9-3.9c-4-1.3-11.1-4.2-20.6-7.3c0-0.1,0-0.3,0-0.5
				c0-1.6-1.3-2.9-2.9-2.9c-0.5,0-1,0.1-1.4,0.4c-0.4-0.7-1.1-1.3-1.9-1.4c0.3-0.5,0.6-1.1,0.6-1.7c0-1.6-1.3-2.9-2.9-2.9
				c0-1.6-1.3-2.9-2.9-2.9s-2.9,1.3-2.9,2.9c-0.7,0-1.4,0.3-1.9,0.8c-0.7-0.7-1.8-1-2.9-0.7c-0.8,0.2-1.4,0.8-1.8,1.6
				c-0.3,0.7-0.3,1.3-0.2,1.9c-12.3-2.5-26.7-4.2-42.6-3.5c-4,0.2-7.7,0.5-11.3,1c-0.5-1-1.5-1.6-2.6-1.6c-0.8,0-1.5,0.3-2,0.8
				c-0.5-0.5-1.3-0.8-2.1-0.8c-0.7,0-1.3,0.4-1.8,0.8c-1,1-1.1,1.9-1,2.7C184.6,34.5,171.6,51,165,51.7c-18,1.8-31.8,7-41.1,11.8
				c-0.3-1.3-1.5-2.3-2.9-2.3c-1.5,0-2.7,1.1-2.9,2.5c-0.3-0.1-0.7-0.2-1.1-0.2c-1.2,0-2.3,0.8-2.7,1.8c-1.3-1.4-3.2-2.1-5.3-1.8
				c-2.4,0.4-4.2,2.3-4.7,4.7c-0.3,1.8,0.2,3.4,1.2,4.6c-0.2,0.2-0.5,0.4-0.7,0.7c-1,1.5,0.2,3.7,1.1,4.9c0.4,0.6,1.2,0.6,1.7,0.2
				C135.4,55.5,172,55.3,172,55.3c24.6-19.6,32.1-23.7,47.2-25.3c0,0,0.1,0,0.1,0c0.2,0,0.5,0,0.7-0.1c4.1-0.4,8.8-0.7,14.5-1
				c23-1.4,63.9,8.6,73.9,12.4c8.7,3.3,32.3,9.1,38.1,9.2c0.8,0.2,1.7,0.2,2.8-1c0.5-0.5,0.9-1.2,0.8-2
				C350.2,46,349.1,44.9,347.7,44.7z"/>
		</g>
		<g id="XMLID_34_">
			<path id="XMLID_72_" class="st0" d="M138.3,85.5c0.1,0,0.1-0.5,0.1-0.8c0-1.6-1.3-2.9-2.9-2.9c-0.6,0-1.2,0.2-1.7,0.6
				c-0.3-1.3-1.4-2.3-2.8-2.3c-0.5-0.7-1.4-1.1-2.3-1.1c-1,0-1.8,0.5-2.4,1.2c-0.2,0-0.3-0.1-0.5-0.1c-1.2,0-2.2,0.7-2.7,1.7
				c-0.1,0-0.1,0-0.2,0c-1.6,0-2.9,1.3-2.9,2.9c0,0.3,0.1,0.8,0.1,0.8H138.3z"/>
		</g>
		<g id="XMLID_33_">
			<path id="XMLID_71_" class="st0" d="M214.3,85.5c0.2-2,0.4-1.7,0.4-2.5c0-4.6-3.7-8.4-8.3-8.4c-1.8,0-3.5,0.5-4.8,1.5
				c-0.8-3.6-4.1-6.4-8-6.4c-1.5-1.9-3.8-3.2-6.5-3.2c-2.7,0-5.1,1.3-6.6,3.4c-0.5-0.1-0.9-0.1-1.4-0.1c-3.4,0-6.2,2-7.5,4.9
				c-0.2,0-0.3-0.1-0.5-0.1c-4.6,0-8.3,3.9-8.3,8.4c0,0.8,0.2,0.5,0.4,2.5H214.3z"/>
		</g>
		<g id="XMLID_35_">
			<path id="XMLID_70_" class="st0" d="M357.4,85.5c0.1,0,0.1-0.5,0.1-0.8c0-1.6-1.3-2.9-2.9-2.9c-0.6,0-1.2,0.2-1.7,0.6
				c-0.3-1.3-1.4-2.3-2.8-2.3c-0.5-0.7-1.4-1.1-2.3-1.1c-1,0-1.8,0.5-2.4,1.2c-0.2,0-0.3-0.1-0.5-0.1c-1.2,0-2.2,0.7-2.7,1.7
				c-0.1,0-0.1,0-0.2,0c-1.6,0-2.9,1.3-2.9,2.9c0,0.3,0.1,0.8,0.1,0.8H357.4z"/>
		</g>
		<g id="XMLID_20_">
			<path class="st0" d="M327.8,19.1c-1.4,0-2.5,1.1-2.5,2.5c0,1.4,1.1,2.5,2.5,2.5c1.4,0,2.5-1.1,2.5-2.5
				C330.3,20.2,329.2,19.1,327.8,19.1z M329.8,21.1c-0.3-0.2-1.4-1.1-1.1-1.2c0.2-0.1,0.7,0.1,0.9,0.4
				C329.9,20.7,329.9,21.2,329.8,21.1z"/>
		</g>
		<g id="XMLID_18_">
			<path class="st0" d="M316.2,23.7c-2.7,0-4.8,2.2-4.8,4.8s2.2,4.8,4.8,4.8c2.7,0,4.8-2.2,4.8-4.8S318.8,23.7,316.2,23.7z
				 M319.4,27.5c-0.6-0.4-2.7-2-2.2-2.4c0.4-0.2,1.3,0.2,1.8,0.8C319.6,26.6,319.7,27.6,319.4,27.5z"/>
		</g>
	</g>
</g>
</svg>
