<svg xmlns="http://www.w3.org/2000/svg" viewBox="0 0 431.36 116.9"><defs><style>.cls-1{fill:#fff;}</style></defs><title>805carwash_white</title><g id="Layer_2" data-name="Layer 2"><g id="Layer_1-2" data-name="Layer 1"><g id="_Group_" data-name="&lt;Group&gt;"><g id="_Group_2" data-name="&lt;Group&gt;"><path class="cls-1" d="M30.57,98.8a9.23,9.23,0,0,1,2,5.92,10.17,10.17,0,0,1-2.22,6.61,13.49,13.49,0,0,1-6,4.13,24.51,24.51,0,0,1-8.43,1.39q-7.51,0-11.72-2.94A9.77,9.77,0,0,1,0,105.35a9.09,9.09,0,0,1,2.51-6.44A13.34,13.34,0,0,1,9.3,95.19a10.42,10.42,0,0,1-4.91-3.58A8.84,8.84,0,0,1,2.6,86.24,9.42,9.42,0,0,1,4.76,80a13.28,13.28,0,0,1,5.83-3.93,23.68,23.68,0,0,1,8.11-1.33A20.35,20.35,0,0,1,26.13,76a11.58,11.58,0,0,1,5.08,3.61A8.72,8.72,0,0,1,33,85.14a9.64,9.64,0,0,1-2.22,6.29,11.41,11.41,0,0,1-5.86,3.75A10.83,10.83,0,0,1,30.57,98.8Zm-9.73,8.6a4.38,4.38,0,0,0,1.79-3.78,3.61,3.61,0,0,0-1.62-3,10.58,10.58,0,0,0-4.21-1.7q-6.64,1.27-6.64,5.43a3.7,3.7,0,0,0,1.62,3.32,8.24,8.24,0,0,0,4.56,1.07A7.47,7.47,0,0,0,20.84,107.4Zm.64-17a4.8,4.8,0,0,0,1.33-3.64,3.37,3.37,0,0,0-1.33-2.89,6,6,0,0,0-3.64-1A5.85,5.85,0,0,0,14.12,84a4.14,4.14,0,0,0-1.47,3.46q0,3.58,4.68,4.79A8.71,8.71,0,0,0,21.48,90.4Z"/><path class="cls-1" d="M39.64,112.11q-3.84-4.73-3.84-13.74a36,36,0,0,1,2-12.67,17.43,17.43,0,0,1,5.75-8.08,14.64,14.64,0,0,1,9-2.8q7.27,0,11.11,4.73T67.5,93.28a36,36,0,0,1-2,12.67A17.42,17.42,0,0,1,59.76,114a14.63,14.63,0,0,1-9,2.8Q43.48,116.84,39.64,112.11Zm15.85-7.68Q57,100.15,57,91.84q0-4.62-1.13-6.75a3.75,3.75,0,0,0-3.55-2.14q-2.95,0-4.5,4.36t-1.56,12.5q0,4.62,1.13,6.76A3.74,3.74,0,0,0,51,108.7Q53.93,108.7,55.49,104.43Z"/><path class="cls-1" d="M95.61,91a11.3,11.3,0,0,1,4.5,4.36,12.54,12.54,0,0,1,1.62,6.38q0,7.16-4.42,11.14t-12.15,4a29.24,29.24,0,0,1-8.34-1.15A22.41,22.41,0,0,1,70,112.45l4-7.68a17.79,17.79,0,0,0,11,3.7A7.24,7.24,0,0,0,89.81,107a5.08,5.08,0,0,0,1.7-4.1A4.85,4.85,0,0,0,89.93,99a6.88,6.88,0,0,0-4.59-1.36,12.77,12.77,0,0,0-3.58.52,11.45,11.45,0,0,0-3.18,1.44H72.63l1.91-24.37h27.14l-.64,8.2H84.47l-.64,6.81a15,15,0,0,1,5.2-.87A13.64,13.64,0,0,1,95.61,91Z"/><path class="cls-1" d="M132.36,114.5a16.51,16.51,0,0,1-7-6.87A21.79,21.79,0,0,1,123,97.09a24.37,24.37,0,0,1,2.74-11.81,19.1,19.1,0,0,1,7.74-7.79,23.79,23.79,0,0,1,11.63-2.74,25.44,25.44,0,0,1,7.74,1.16,20.68,20.68,0,0,1,6.47,3.35l-3.93,7.68a18.52,18.52,0,0,0-4.85-2.77,14.16,14.16,0,0,0-4.91-.87A10.59,10.59,0,0,0,137,87Q134,90.63,134,97.09q0,5.49,2.4,8.37t7,2.89a15.12,15.12,0,0,0,5-.9,30.44,30.44,0,0,0,5.63-2.74l2.71,7.68a15,15,0,0,1-5.83,3.26,24.49,24.49,0,0,1-7.74,1.24A22.73,22.73,0,0,1,132.36,114.5Z"/><path class="cls-1" d="M193.13,116.38l-3-8.49h-18.3l-4.27,8.49h-11l22.4-41.11h8.66l15.94,41.11ZM176,99.75h11.26l-4.68-13.11Z"/><path class="cls-1" d="M236,101.16a9.4,9.4,0,0,1,1.67,3.38l4,11.84H230.26L226,102.69q-.69-2.31-4-2.31h-4.1l-1.21,16H206l3.18-41.11h20.09q6.47,0,10.1,3.23A11,11,0,0,1,243,87.1q0,10-9.58,12.3A5.66,5.66,0,0,1,236,101.16Zm-8.89-8.86a6.5,6.5,0,0,0,4.27-1.21,4.21,4.21,0,0,0,1.44-3.41,4,4,0,0,0-1.21-3.18,5.89,5.89,0,0,0-3.87-1h-8.6l-.69,8.83Z"/><path class="cls-1" d="M300.47,75.27h10.28l-17.9,41.11h-8.6l-6.76-24.54-10.62,24.54h-8.66L246.83,75.27h10.85l6.52,25.81,11.09-25.81h7.51l6.64,26.39Z"/><path class="cls-1" d="M339.33,116.38l-3-8.49H318l-4.27,8.49h-11l22.4-41.11h8.66l15.94,41.11ZM322.18,99.75h11.26l-4.68-13.11Z"/><path class="cls-1" d="M358,115.71a26.63,26.63,0,0,1-7.79-3.32l4-7.68a24.87,24.87,0,0,0,13.45,3.87q6.76,0,6.76-3.35a3.1,3.1,0,0,0-1.88-2.8,34.13,34.13,0,0,0-5.92-2.22,53.76,53.76,0,0,1-7-2.45,13.08,13.08,0,0,1-4.76-3.64,9.48,9.48,0,0,1-2-6.26,11.31,11.31,0,0,1,2.19-6.9,14,14,0,0,1,6.21-4.59,25,25,0,0,1,9.38-1.62,30.17,30.17,0,0,1,8.6,1.21,17.57,17.57,0,0,1,6.52,3.29l-3.87,7.68a20.28,20.28,0,0,0-5.6-2.86,18.79,18.79,0,0,0-5.89-1,10.52,10.52,0,0,0-5,1,3.06,3.06,0,0,0,0,5.63,33.47,33.47,0,0,0,6,2.14,54.84,54.84,0,0,1,7,2.42,13,13,0,0,1,4.73,3.58,9.18,9.18,0,0,1,2,6.12,11.09,11.09,0,0,1-4.68,9.56q-4.68,3.38-13.22,3.38A36.23,36.23,0,0,1,358,115.71Z"/><path class="cls-1" d="M420.8,75.27h10.57l-3.23,41.11H417.45l1.33-16.63H402.26l-1.33,16.63H390.31l3.23-41.11h10.68l-1.27,16h16.51Z"/></g><g id="_Group_3" data-name="&lt;Group&gt;"><g id="_Group_4" data-name="&lt;Group&gt;"><g id="_Group_5" data-name="&lt;Group&gt;"><path class="cls-1" d="M93.39,63.57c4.74-5.58,20.78-20.22,61.24-25a.52.52,0,0,1,.22,1C142.82,43.19,114,52.53,94,64.35A.52.52,0,0,1,93.39,63.57Z"/></g><g id="_Group_6" data-name="&lt;Group&gt;"><path class="cls-1" d="M159.12,38.32a.59.59,0,0,1-.41-1.06c5.44-3.93,22-15.72,28.63-19,29.55-14.57,103.6,5,112,10s-86.9-18.78-138.8,10Z"/></g><g id="_Group_7" data-name="&lt;Group&gt;"><path class="cls-1" d="M303.1,29.91c7.37,1.57,20.78,4.11,29.45,3.89a2.77,2.77,0,0,1,2.76,2c.68,2.43,1.86,6.11,2.86,6.61,1.41.7-15.32-4.21-35.29-11.76A.4.4,0,0,1,303.1,29.91Z"/></g></g><g id="_Group_8" data-name="&lt;Group&gt;"><path class="cls-1" d="M332.65,25.62A2.94,2.94,0,0,0,330,23.87h-.13a2.85,2.85,0,0,0,.05-2,2.94,2.94,0,0,0-5.72.93c0,.06,0,.12,0,.18a2.93,2.93,0,0,0-.79.53,2.93,2.93,0,0,0-4.94,2.14c0,.06,0,.12,0,.18C313,24.62,307,23.37,302.62,22c-4-1.29-11.06-4.22-20.6-7.27a2.91,2.91,0,0,0-4.33-3,2.93,2.93,0,0,0-1.9-1.45,2.93,2.93,0,0,0-2.3-4.65,2.93,2.93,0,0,0-5.86,0,2.92,2.92,0,0,0-1.92.79,2.93,2.93,0,0,0-2.87-.67A2.88,2.88,0,0,0,261,7.26a2.94,2.94,0,0,0-.22,1.86,177,177,0,0,0-42.63-3.54,107.28,107.28,0,0,0-11.3,1,2.91,2.91,0,0,0-4.61-.82A2.92,2.92,0,0,0,200.19,5a2.78,2.78,0,0,0-1.81.84,2.71,2.71,0,0,0-1,2.65C169.63,15.44,156.61,32,150,32.63a113.37,113.37,0,0,0-41.13,11.84,2.93,2.93,0,0,0-5.77.18,2.93,2.93,0,0,0-3.83,1.63,5.79,5.79,0,0,0-8.78,7.54,2.7,2.7,0,0,0-.68.71c-1,1.54.2,3.69,1.11,4.93a1.18,1.18,0,0,0,1.71.2c27.7-23.22,64.29-23.45,64.29-23.45C181.5,16.59,189,12.52,204.18,10.88h.1a2.92,2.92,0,0,0,.7-.09c4.12-.42,8.81-.67,14.54-1,23-1.41,63.93,8.57,73.89,12.38,8.72,3.33,32.31,9.15,38.13,9.21a2.68,2.68,0,0,0,2.83-1,2.7,2.7,0,0,0,.83-2A2.93,2.93,0,0,0,332.65,25.62Z"/></g><g id="_Group_9" data-name="&lt;Group&gt;"><path class="cls-1" d="M123.67,66.39c.08,0,.14-.49.14-.79a2.92,2.92,0,0,0-4.65-2.34A2.93,2.93,0,0,0,116.32,61a2.91,2.91,0,0,0-4.67.05,2.88,2.88,0,0,0-3.18,1.68l-.18,0a2.89,2.89,0,0,0-2.94,2.89c0,.29.06.79.14.79Z"/></g><g id="_Group_10" data-name="&lt;Group&gt;"><path class="cls-1" d="M199.7,66.39c.23-2,.38-1.68.38-2.51a8.33,8.33,0,0,0-8.27-8.34A8.17,8.17,0,0,0,187,57.08a8.27,8.27,0,0,0-8-6.4,8.19,8.19,0,0,0-13.12.12A8.07,8.07,0,0,0,157,55.52c-.17,0-.34-.05-.51-.05a8.39,8.39,0,0,0-8.27,8.41c0,.83.16.51.38,2.51Z"/></g><g id="_Group_11" data-name="&lt;Group&gt;"><path class="cls-1" d="M342.77,66.39c.08,0,.14-.49.14-.79a2.92,2.92,0,0,0-4.65-2.34A2.93,2.93,0,0,0,335.43,61a2.91,2.91,0,0,0-4.67.05,2.88,2.88,0,0,0-3.18,1.68l-.18,0a2.89,2.89,0,0,0-2.94,2.89c0,.29.06.79.14.79Z"/></g><g id="_Group_12" data-name="&lt;Group&gt;"><path class="cls-1" d="M313.22,0a2.47,2.47,0,1,0,2.47,2.47A2.47,2.47,0,0,0,313.22,0Zm1.94,2.05c-.29-.2-1.39-1.05-1.12-1.22s.67.11.91.41S315.29,2.14,315.16,2.05Z"/></g><g id="_Group_13" data-name="&lt;Group&gt;"><path class="cls-1" d="M301.55,4.67a4.8,4.8,0,1,0,4.8,4.8A4.8,4.8,0,0,0,301.55,4.67Zm3.28,3.72c-.57-.38-2.71-2-2.18-2.38.36-.23,1.3.21,1.77.8C305,7.58,305.08,8.56,304.83,8.39Z"/></g></g></g></g></g></svg>